<?xml version="1.0" encoding="UTF-8"?>
<svg id="Camada_2" data-name="Camada 2" xmlns="http://www.w3.org/2000/svg" viewBox="0 0 1920 1080">
  <defs>
    <style>
      .cls-1 {
        fill: #f2f2f2;
      }
    </style>
  </defs>
  <g>
    <path class="cls-1" d="M845.68,380.13h-79l-55.85,55.87v78.99l55.85,55.86h79l55.87-55.86v-78.99l-55.87-55.87ZM778.36,405.64l-40.62,40.76-.12,33.96h-13.31s-.23-33.47-.23-33.47c-.01-2.59.67-6.95,2.57-8.85l42.55-42.65c1.67-1.68,5.2-3.15,7.4-3.14l32.25.09.02,13.27-30.51.03ZM864.34,522.85c-9.25,9.63-23.17,8.44-31.8-1.54-5.79-6.71-7.48-15.19-8.13-24.26-.85-11.63,2.36-22.74,11.46-29.88,10.15-7.95,23.95-6.16,30.88,4.79-5.33-1.53-8.61-2.49-12.57.03-2.54,1.63-4.28,5.91-3.48,9.66,1.1,5.27,4.96,8.5,9.7,8.64,5.18.16,9.08-2.83,11.2-8.35,4.62,14.88,3.1,30.09-7.26,40.91Z"/>
    <path class="cls-1" d="M1148.17,379.63h-79.42l-56.16,56.15v79.42l56.16,56.16h79.42l56.17-56.16v-79.42l-56.17-56.15ZM1039.17,480.36h-13.31s-.23-33.47-.23-33.47c-.02-2.59.67-6.95,2.57-8.85l42.54-42.65c1.68-1.68,5.2-3.15,7.41-3.14l32.23.09.02,13.27-30.49.03-40.62,40.76-.12,33.96ZM1082.18,522.85c-9.23,9.63-23.16,8.44-31.79-1.54-5.8-6.71-7.47-15.19-8.13-24.26-.84-11.63,2.35-22.74,11.46-29.88,10.14-7.95,23.95-6.16,30.88,4.79-5.33-1.53-8.6-2.49-12.57.03-2.55,1.63-4.28,5.91-3.49,9.66,1.11,5.27,4.97,8.5,9.72,8.64,5.17.16,9.07-2.83,11.19-8.35,4.62,14.88,3.1,30.09-7.27,40.91ZM1188.81,511.2c0,.18-.08.38-.22.51l-46.67,46.44c-.13.14-.32.2-.51.2l-34.07-.15c-.64,0-.96-.78-.5-1.23l80.74-79.88c.45-.45,1.23-.11,1.23.52,0,12.34-.04,21.95,0,33.59ZM1148.17,379.63h-79.42l-56.16,56.15v79.42l56.16,56.16h79.42l56.17-56.16v-79.42l-56.17-56.15ZM1039.17,480.36h-13.31s-.23-33.47-.23-33.47c-.02-2.59.67-6.95,2.57-8.85l42.54-42.65c1.68-1.68,5.2-3.15,7.41-3.14l32.23.09.02,13.27-30.49.03-40.62,40.76-.12,33.96ZM1082.18,522.85c-9.23,9.63-23.16,8.44-31.79-1.54-5.8-6.71-7.47-15.19-8.13-24.26-.84-11.63,2.35-22.74,11.46-29.88,10.14-7.95,23.95-6.16,30.88,4.79-5.33-1.53-8.6-2.49-12.57.03-2.55,1.63-4.28,5.91-3.49,9.66,1.11,5.27,4.97,8.5,9.72,8.64,5.17.16,9.07-2.83,11.19-8.35,4.62,14.88,3.1,30.09-7.27,40.91ZM1188.81,511.2c0,.18-.08.38-.22.51l-46.67,46.44c-.13.14-.32.2-.51.2l-34.07-.15c-.64,0-.96-.78-.5-1.23l80.74-79.88c.45-.45,1.23-.11,1.23.52,0,12.34-.04,21.95,0,33.59ZM1148.17,379.63h-79.42l-56.16,56.15v79.42l56.16,56.16h79.42l56.17-56.16v-79.42l-56.17-56.15ZM1039.17,480.36h-13.31s-.23-33.47-.23-33.47c-.02-2.59.67-6.95,2.57-8.85l42.54-42.65c1.68-1.68,5.2-3.15,7.41-3.14l32.23.09.02,13.27-30.49.03-40.62,40.76-.12,33.96ZM1082.18,522.85c-9.23,9.63-23.16,8.44-31.79-1.54-5.8-6.71-7.47-15.19-8.13-24.26-.84-11.63,2.35-22.74,11.46-29.88,10.14-7.95,23.95-6.16,30.88,4.79-5.33-1.53-8.6-2.49-12.57.03-2.55,1.63-4.28,5.91-3.49,9.66,1.11,5.27,4.97,8.5,9.72,8.64,5.17.16,9.07-2.83,11.19-8.35,4.62,14.88,3.1,30.09-7.27,40.91ZM1188.81,511.2c0,.18-.08.38-.22.51l-46.67,46.44c-.13.14-.32.2-.51.2l-34.07-.15c-.64,0-.96-.78-.5-1.23l80.74-79.88c.45-.45,1.23-.11,1.23.52,0,12.34-.04,21.95,0,33.59Z"/>
    <path class="cls-1" d="M1057.96,597.43l-71.43-71.43v-54.26c-7.78-5.95-17.5-9.47-28.05-9.47-11.62,0-22.23,4.29-30.35,11.36v52.37l-71.43,71.43h-32.61c1.68.63,3.2,1.57,4.5,2.79,4,3.78,18.7,18.32,19.32,18.94l.65.65.56.74c1.01,1.34,1.9,2.82,2.66,4.51h211.69c.72-1.6,1.6-3.12,2.66-4.53l.55-.73.65-.64c.63-.62,15.3-15.14,19.32-18.93,1.24-1.16,2.65-2.11,4.18-2.8h-32.87ZM1004.25,588.37c-6.45,12.96-24.41,22.28-37.13,12.71l-9.75-8.06c-8.71,11.54-25.42,15.9-37.19,6.51-3.73-4.01-14.59-12.23-5.75-16.64,9.46-2.17,17.86,23.44,36.47.66l.41-14.46c-8.51-5.05-18.63-8.69-19.49-19.77-.38-4.95,4.76-9.95,9.93-9.95l31.33-.02c16.6,1.59,10.1,20.11-.96,24.71l-8.35,4.62.47,14.92c4.59,7.14,13.66,11.18,21.77,8.03,6.44-2.5,8.55-9.96,14.64-8.94,1.71.28,4.6,4.12,3.6,5.68ZM1162.1,607.67c1.06,1.04,2.15,2.1,3.21,3.15l.05-.05-3.26-3.1ZM1245.52,467.02l.05,62.91-40.65,41.05c-.05.11-.11.26-.17.41l41.51-41.51v-62.86h-.74Z"/>
    <path class="cls-1" d="M1246.26,422.6v18.94h-15.85v-16.56l-51.32-51.32-20.11-20.11.2-42.53-10.73-37.75-16.5-.16-41.77,45.51,35.95,34.92h-68.15l-71.43,71.43v20.45c-7.91-6.36-17.99-10.17-28.93-10.17s-21.46,3.98-29.46,10.59v-20.87l-71.43-71.43h-68.15l35.95-34.92-41.77-45.51-16.5.17-10.73,37.74.2,42.53h-.01l-71.43,71.43v48.77h-15.31v-51.15l29.34-29.34h-41.04v-13.13h54.17l9.29-9.29-.74-.15v-56.18l22.17-76.15h57.95l22.51,22.78h29.9v13.15h-16.91l30.24,30.6h31.87v26.64l16.88,15.74,9.68-8.13v-34.25h17.63v49.97l15.4,15.06,15.64-15.26v-49.76h17.75v33.19l8.97,9.1,17.34-15.28v-27.01h30.79,0s24.39-24.69,24.39-24.69h-5.42v-4.31h9.68l37.09-37.53h57.94l16.67,57.24h-11.96v19.83h17.46v54.5l52.66,52.66Z"/>
    <path class="cls-1" d="M1232.7,575.32l.03,12.39-37.51-.04-.46,6.2-22.94,23.11s-16-15.46-17.37-16.75c-.3-.29-.63-.57-.96-.83-.99-.78-2.07-1.44-3.19-1.96h8.68l71.43-71.43v-70.1h7.9v11.11h7.22l.05,62.91-40.65,41.05c-.05.12-.12.26-.18.41-.3.67-.67,1.55-.46,1.83l1.56,2.2,26.86-.1Z"/>
    <path class="cls-1" d="M765.69,597.43c-1.34.47-2.62,1.13-3.79,1.95h0c-.49.35-.95.72-1.4,1.13-1.94,1.76-6.29,5.83-10.45,9.73-.13.13-.25.24-.38.36l-7.25,6.63-23.14-23.75-19.69-.39-.02-12.44,12.66-.07-.02-7.42-2.34-2.35-.03-.03-40.91-40.9v-42.53h15.31v38.65l71.43,71.43h10.02Z"/>
    <path class="cls-1" d="M1246.25,638.69v202.94h-35.1v-142.72h-507.39v142.72h-34.83v-64.24h-15.24v-17.63h15.24v-121.07h64.24c-.4,5.93.32,10.81.48,11.77.25,1.56.74,3.17,1.44,4.81.59,1.41,1.34,2.84,2.22,4.26.71,1.15,1.51,2.29,2.39,3.41,1.48,1.9,3.17,3.71,5.01,5.38.91.82,1.85,1.6,2.82,2.34,1.46,1.11,2.99,2.12,4.56,2.99,2.12,1.18,4.32,2.12,6.53,2.73,1.88.52,3.77.8,5.62.8.6,0,1.2-.03,1.78-.08,1.56-.14,3.06-.48,4.49-1,.67.89,1.39,1.73,2.17,2.52.23.25.47.49.72.71,4.76,4.55,11.2,7.34,18.27,7.34h5.78c8.47,0,16.03-4,20.87-10.21,1.75.55,3.59.83,5.5.83,1.65,0,3.32-.23,4.98-.65,2.6-.65,5.18-1.77,7.66-3.24,8.91-5.25,16.4-14.91,17.67-22.96l.16-.99v-.19c.25-1.5.58-3.66.63-5.51.05-1.67.03-3.38-.07-5.06h205.56c-.34,5.76.32,10.44.47,11.39,1.22,7.98,7.58,14.86,10.25,17.45,3.64,3.53,11.02,9.43,19.66,9.43,1.99,0,3.94-.32,5.77-.93,4.85,6.39,12.51,10.52,21.12,10.52h5.74c8.6,0,16.27-4.13,21.11-10.52,1.83.62,3.76.93,5.78.93,8.63,0,16.01-5.9,19.65-9.43,2.68-2.59,9.04-9.47,10.26-17.47l.16-.96v-.09c.21-1.66.35-3.46.4-5.26.04-1.4.04-3.13-.09-5.06h65.56Z"/>
    <path class="cls-1" d="M842.1,638.69c-.1-1.53-.27-3.06-.54-4.49h0c-.64-2.34-1.44-4.44-2.6-5.99,0,0-1.28-1.26-3.2-3.15-4.67-4.62-13.12-12.94-15.92-15.58-.19-.19-.55-.24-.87-.24-.39,0-.73.07-.73.07h-47.51c-.64,0-1.24.23-1.7.65-1.89,1.7-6.22,5.75-10.36,9.65-4.89,4.6-9.51,8.98-9.51,8.98-1.9,2.42-2.87,6.22-3.24,10.1-.31,3.51-.14,7.08.29,9.72.29,1.83,1.51,4.09,3.22,6.33.35.45.71.89,1.1,1.33.96,1.09,2.02,2.17,3.16,3.17.44.39.9.77,1.37,1.15.7.54,1.43,1.05,2.15,1.52.48.31.96.59,1.45.85,1.94,1.05,3.87,1.69,5.58,1.69.94,0,1.83-.2,2.6-.62.17-.09.26-.26.26-.45l.04-12.73c0-.68.56-1.24,1.24-1.24h.01l8.29.05c.69,0,1.23.56,1.23,1.24v9.48c0,7.6,6.16,13.76,13.76,13.76h5.78c7.6,0,13.76-6.16,13.76-13.76v-9.44c0-.69.54-1.23,1.23-1.23l7.28-.05h.01c.68,0,1.24.55,1.24,1.23l.03,12.72c0,.24.13.47.34.58.74.39,1.58.58,2.48.58,4.42,0,10.28-4.41,14.05-9.1.36-.45.69-.89,1.02-1.34.95-1.35,1.7-2.68,2.18-3.92.16-.41.28-.81.37-1.19.05-.2.09-.38.12-.57v-.34s.59-3,.64-4.72c.05-1.52.02-3.12-.1-4.7Z"/>
    <path class="cls-1" d="M1168.06,643.39c-.05,1.72-.2,3.35-.41,4.72v.02c-.13.79-.41,1.67-.83,2.59-.13.28-.26.57-.42.86-.16.29-.32.59-.5.89-.26.44-.55.89-.86,1.33,0,0,0,0,0,0-.3.45-.64.89-.99,1.34-1.58,2.01-3.53,3.97-5.58,5.54-.46.35-.92.69-1.39,1-.46.3-.92.59-1.39.85-1.87,1.06-3.72,1.69-5.37,1.69-.88,0-1.69-.18-2.43-.57-.21-.12-.32-.34-.33-.58l-.02-12.72c0-.45-.24-.84-.61-1.06-.05-.04-.11-.06-.16-.08-.15-.07-.3-.1-.48-.1l-7.88.04c-.68,0-1.22.56-1.22,1.24v9.64c0,7.6-6.16,13.76-13.76,13.76h-5.74c-7.6,0-13.75-6.16-13.75-13.76v-9.64c0-.69-.56-1.23-1.23-1.24l-7.88-.04-.48.1s-.11.04-.16.08c-.55.64-.61.84-.61,1.06l-.03,12.81c0,.18-.1.35-.25.45-.1.05-.19.1-.28.15-.15.06-.29.12-.44.18-.16.05-.3.1-.46.14h0c-.21.05-.41.09-.63.11-.23.03-.45.04-.68.04-1.65,0-3.5-.64-5.37-1.69-.46-.26-.93-.55-1.39-.85-.36-.24-.72-.5-1.09-.78-4.69-3.49-8.91-9.02-9.49-12.78-.4-2.58-.57-6.02-.29-9.44.31-4.01,1.24-7.98,3.12-10.48,0,0,1.28-1.26,3.19-3.15,4.66-4.61,13.1-12.93,15.9-15.57.44-.42,1.03-.65,1.64-.65h47.07c.61,0,1.18.23,1.62.64,1.9,1.8,6.43,6.24,10.6,10.34,4.47,4.39,8.51,8.39,8.51,8.39,1.17,1.55,1.97,3.65,2.48,5.98h0c.32,1.45.53,2.97.65,4.49.14,1.59.17,3.19.12,4.7Z"/>
    <path class="cls-1" d="M745.01,724.19c1.45.45,2.53,1.19,3.69,2.35l41.1,41.13c2.37,2.37,2.2,6.19-.11,8.51l-41.66,41.66c-2.35,2.35-6.08,2.3-8.37.04l-3.75-3.71c-2.33-2.59-2.15-6.17.27-8.59l33.72-33.72-33.99-34.03c-2.08-2.09-2.02-5.31-.49-7.61,1.72-1.83,3.28-3.5,5.21-5.1.49-.41,1.54-.63,2.03-.93h2.35Z"/>
    <rect class="cls-1" x="797.6" y="807.73" width="71.84" height="15.52"/>
  </g>
  <rect class="cls-1" x="1255.33" y="441.42" width="26.79" height="13.54"/>
  <rect class="cls-1" x="1197.86" y="295.69" width="13.41" height="18.77"/>
  <rect class="cls-1" x="1001.49" y="277.17" width="31.9" height="13.51"/>
  <rect class="cls-1" x="675.46" y="580.19" width="12.64" height="13.54"/>
  <rect class="cls-1" x="637.88" y="717.9" width="11.3" height="12.45"/>
  <rect class="cls-1" x="1256.61" y="720.52" width="13.54" height="15.84"/>
  <g>
    <rect class="cls-1" x="850.88" y="662.94" width="7.66" height="7.73"/>
    <rect class="cls-1" x="866.11" y="662.94" width="7.66" height="7.73"/>
    <rect class="cls-1" x="881.34" y="662.94" width="7.66" height="7.73"/>
    <rect class="cls-1" x="896.57" y="662.94" width="7.66" height="7.73"/>
    <rect class="cls-1" x="911.8" y="662.94" width="7.66" height="7.73"/>
    <rect class="cls-1" x="843.23" y="670.67" width="7.66" height="7.95"/>
    <path class="cls-1" d="M836.46,673.4v5.22h-7.66v-1.98c2.6-.65,5.18-1.77,7.66-3.24Z"/>
    <rect class="cls-1" x="858.46" y="670.67" width="7.66" height="7.95"/>
    <rect class="cls-1" x="873.69" y="670.67" width="7.66" height="7.95"/>
    <rect class="cls-1" x="888.92" y="670.67" width="7.66" height="7.95"/>
    <rect class="cls-1" x="904.16" y="670.67" width="7.66" height="7.95"/>
    <rect class="cls-1" x="835.59" y="678.62" width="7.66" height="6.69"/>
    <rect class="cls-1" x="821.15" y="678.62" width="7.66" height="6.69"/>
    <rect class="cls-1" x="850.82" y="678.62" width="7.66" height="6.69"/>
    <rect class="cls-1" x="866.05" y="678.62" width="7.66" height="6.69"/>
    <rect class="cls-1" x="881.28" y="678.62" width="7.66" height="6.69"/>
    <rect class="cls-1" x="896.51" y="678.62" width="7.66" height="6.69"/>
    <rect class="cls-1" x="858.55" y="655.27" width="7.66" height="7.66"/>
    <rect class="cls-1" x="873.78" y="655.27" width="7.66" height="7.66"/>
    <rect class="cls-1" x="889.01" y="655.27" width="7.66" height="7.66"/>
    <rect class="cls-1" x="904.24" y="655.27" width="7.66" height="7.66"/>
    <rect class="cls-1" x="919.47" y="655.27" width="7.66" height="7.66"/>
  </g>
  <g>
    <path class="cls-1" d="M744.71,668.32v2.34h-7.4v-7.72h2.39c1.48,1.9,3.17,3.71,5.01,5.38Z"/>
    <rect class="cls-1" x="722.62" y="662.94" width="7.39" height="7.73" transform="translate(1452.63 1333.6) rotate(-180)"/>
    <rect class="cls-1" x="707.92" y="662.94" width="7.39" height="7.73" transform="translate(1423.23 1333.6) rotate(-180)"/>
    <path class="cls-1" d="M752.09,673.65v4.97h-7.4v-7.96h2.84c1.46,1.11,2.99,2.12,4.56,2.99Z"/>
    <path class="cls-1" d="M766.02,677.1v1.52h-7.4v-2.24c1.88.52,3.77.8,5.62.8.6,0,1.2-.03,1.78-.08Z"/>
    <rect class="cls-1" x="730" y="670.67" width="7.39" height="7.95" transform="translate(1467.39 1349.28) rotate(-180)"/>
    <rect class="cls-1" x="715.3" y="670.67" width="7.39" height="7.95" transform="translate(1437.99 1349.28) rotate(-180)"/>
    <rect class="cls-1" x="752.08" y="678.62" width="7.39" height="6.69" transform="translate(1511.55 1363.93) rotate(-180)"/>
    <rect class="cls-1" x="766" y="678.62" width="7.39" height="6.69" transform="translate(1539.4 1363.93) rotate(-180)"/>
    <rect class="cls-1" x="737.38" y="678.62" width="7.39" height="6.69" transform="translate(1482.15 1363.93) rotate(-180)"/>
    <rect class="cls-1" x="722.68" y="678.62" width="7.39" height="6.69" transform="translate(1452.76 1363.93) rotate(-180)"/>
    <rect class="cls-1" x="707.98" y="678.62" width="7.39" height="6.69" transform="translate(1423.36 1363.93) rotate(-180)"/>
    <path class="cls-1" d="M737.31,659.53v3.41h-7.39v-7.67h5.17c.59,1.41,1.34,2.84,2.22,4.26Z"/>
    <rect class="cls-1" x="715.22" y="655.27" width="7.39" height="7.66" transform="translate(1437.84 1318.21) rotate(-180)"/>
  </g>
  <g>
    <rect class="cls-1" x="693.22" y="662.94" width="7.39" height="7.73" transform="translate(1393.84 1333.6) rotate(-180)"/>
    <rect class="cls-1" x="700.6" y="670.67" width="7.39" height="7.95" transform="translate(1408.6 1349.28) rotate(-180)"/>
    <rect class="cls-1" x="685.9" y="670.67" width="7.39" height="7.95" transform="translate(1379.2 1349.28) rotate(-180)"/>
    <rect class="cls-1" x="693.29" y="678.62" width="7.39" height="6.69" transform="translate(1393.97 1363.93) rotate(-180)"/>
    <rect class="cls-1" x="700.52" y="655.27" width="7.39" height="7.66" transform="translate(1408.44 1318.21) rotate(-180)"/>
    <rect class="cls-1" x="685.83" y="655.27" width="7.39" height="7.66" transform="translate(1379.05 1318.21) rotate(-180)"/>
    <rect class="cls-1" x="693.22" y="692.97" width="7.39" height="7.73" transform="translate(1393.84 1393.67) rotate(-180)"/>
    <rect class="cls-1" x="685.9" y="700.7" width="7.39" height="7.95" transform="translate(1379.2 1409.35) rotate(-180)"/>
    <rect class="cls-1" x="693.29" y="708.65" width="7.39" height="6.69" transform="translate(1393.97 1423.99) rotate(-180)"/>
    <rect class="cls-1" x="685.83" y="685.31" width="7.39" height="7.66" transform="translate(1379.05 1378.28) rotate(-180)"/>
    <rect class="cls-1" x="693.22" y="723.01" width="7.39" height="7.73" transform="translate(1393.84 1453.74) rotate(-180)"/>
    <rect class="cls-1" x="685.9" y="730.73" width="7.39" height="7.95" transform="translate(1379.2 1469.42) rotate(-180)"/>
    <rect class="cls-1" x="693.29" y="738.68" width="7.39" height="6.69" transform="translate(1393.97 1484.06) rotate(-180)"/>
    <rect class="cls-1" x="685.83" y="715.34" width="7.39" height="7.66" transform="translate(1379.05 1438.35) rotate(-180)"/>
    <rect class="cls-1" x="693.22" y="753.04" width="7.39" height="7.73" transform="translate(1393.84 1513.81) rotate(-180)"/>
    <rect class="cls-1" x="685.9" y="760.77" width="7.39" height="7.95" transform="translate(1379.2 1529.49) rotate(-180)"/>
    <rect class="cls-1" x="693.29" y="768.72" width="7.39" height="6.69" transform="translate(1393.97 1544.13) rotate(-180)"/>
    <rect class="cls-1" x="685.83" y="745.38" width="7.39" height="7.66" transform="translate(1379.05 1498.42) rotate(-180)"/>
    <rect class="cls-1" x="693.22" y="783.08" width="7.39" height="7.73" transform="translate(1393.84 1573.88) rotate(-180)"/>
    <rect class="cls-1" x="685.9" y="790.8" width="7.39" height="7.95" transform="translate(1379.2 1589.56) rotate(-180)"/>
    <rect class="cls-1" x="693.29" y="798.75" width="7.39" height="6.69" transform="translate(1393.97 1604.2) rotate(-180)"/>
    <rect class="cls-1" x="685.83" y="775.41" width="7.39" height="7.66" transform="translate(1379.05 1558.49) rotate(-180)"/>
    <rect class="cls-1" x="693.22" y="813.11" width="7.39" height="7.73" transform="translate(1393.84 1633.95) rotate(-180)"/>
    <rect class="cls-1" x="685.9" y="820.84" width="7.39" height="7.95" transform="translate(1379.2 1649.63) rotate(-180)"/>
    <rect class="cls-1" x="693.29" y="828.79" width="7.39" height="6.69" transform="translate(1393.97 1664.27) rotate(-180)"/>
    <rect class="cls-1" x="700.68" y="685.31" width="5.47" height="7.73" transform="translate(1406.83 1378.35) rotate(-180)"/>
    <rect class="cls-1" x="700.71" y="700.99" width="2.94" height="6.69" transform="translate(1404.35 1408.67) rotate(-180)"/>
    <rect class="cls-1" x="700.68" y="715.34" width="2.94" height="7.73" transform="translate(1404.3 1438.42) rotate(-180)"/>
    <rect class="cls-1" x="700.71" y="731.02" width="2.94" height="6.69" transform="translate(1404.35 1468.74) rotate(-180)"/>
    <rect class="cls-1" x="700.68" y="745.38" width="2.94" height="7.73" transform="translate(1404.3 1498.48) rotate(-180)"/>
    <rect class="cls-1" x="700.71" y="761.06" width="2.94" height="6.69" transform="translate(1404.35 1528.81) rotate(-180)"/>
    <rect class="cls-1" x="700.68" y="775.41" width="2.94" height="7.73" transform="translate(1404.3 1558.55) rotate(-180)"/>
    <rect class="cls-1" x="700.71" y="791.09" width="2.94" height="6.69" transform="translate(1404.35 1588.88) rotate(-180)"/>
    <rect class="cls-1" x="700.68" y="805.45" width="2.94" height="7.73" transform="translate(1404.3 1618.62) rotate(-180)"/>
    <rect class="cls-1" x="700.71" y="821.13" width="2.94" height="6.69" transform="translate(1404.35 1648.94) rotate(-180)"/>
    <rect class="cls-1" x="685.83" y="805.45" width="7.39" height="7.66" transform="translate(1379.05 1618.56) rotate(-180)"/>
  </g>
  <g>
    <rect class="cls-1" x="1214.14" y="692.97" width="7.39" height="7.73"/>
    <rect class="cls-1" x="1221.45" y="700.7" width="7.39" height="7.95"/>
    <rect class="cls-1" x="1214.07" y="708.65" width="7.39" height="6.69"/>
    <rect class="cls-1" x="1221.53" y="685.31" width="7.39" height="7.66"/>
    <rect class="cls-1" x="1214.14" y="723.01" width="7.39" height="7.73"/>
    <rect class="cls-1" x="1221.45" y="730.73" width="7.39" height="7.95"/>
    <rect class="cls-1" x="1214.07" y="738.68" width="7.39" height="6.69"/>
    <rect class="cls-1" x="1221.53" y="715.34" width="7.39" height="7.66"/>
    <rect class="cls-1" x="1214.14" y="753.04" width="7.39" height="7.73"/>
    <rect class="cls-1" x="1221.45" y="760.77" width="7.39" height="7.95"/>
    <rect class="cls-1" x="1214.07" y="768.72" width="7.39" height="6.69"/>
    <rect class="cls-1" x="1221.53" y="745.38" width="7.39" height="7.66"/>
    <rect class="cls-1" x="1214.14" y="783.08" width="7.39" height="7.73"/>
    <rect class="cls-1" x="1221.45" y="790.8" width="7.39" height="7.95"/>
    <rect class="cls-1" x="1214.07" y="798.75" width="7.39" height="6.69"/>
    <rect class="cls-1" x="1221.53" y="775.41" width="7.39" height="7.66"/>
    <rect class="cls-1" x="1214.14" y="813.11" width="7.39" height="7.73"/>
    <rect class="cls-1" x="1221.45" y="820.84" width="7.39" height="7.95"/>
    <rect class="cls-1" x="1214.07" y="828.79" width="7.39" height="6.69"/>
    <rect class="cls-1" x="1208.6" y="685.31" width="5.47" height="7.73"/>
    <rect class="cls-1" x="1211.11" y="700.99" width="2.94" height="6.69"/>
    <rect class="cls-1" x="1211.13" y="715.34" width="2.94" height="7.73"/>
    <rect class="cls-1" x="1211.11" y="731.02" width="2.94" height="6.69"/>
    <rect class="cls-1" x="1211.13" y="745.38" width="2.94" height="7.73"/>
    <rect class="cls-1" x="1211.11" y="761.06" width="2.94" height="6.69"/>
    <rect class="cls-1" x="1211.13" y="775.41" width="2.94" height="7.73"/>
    <rect class="cls-1" x="1211.11" y="791.09" width="2.94" height="6.69"/>
    <rect class="cls-1" x="1211.13" y="805.45" width="2.94" height="7.73"/>
    <rect class="cls-1" x="1211.11" y="821.13" width="2.94" height="6.69"/>
    <rect class="cls-1" x="1221.53" y="805.45" width="7.39" height="7.66"/>
  </g>
</svg>